<svg xmlns="http://www.w3.org/2000/svg" viewBox="0 0 280 64" fill="none">
  <defs>
    <linearGradient id="leaf-grad" x1="15%" y1="0%" x2="85%" y2="100%">
      <stop offset="0%" stop-color="#10b981"/>
      <stop offset="60%" stop-color="#06b6d4"/>
      <stop offset="100%" stop-color="#0284c7"/>
    </linearGradient>
    <linearGradient id="ribbon-grad" x1="0%" y1="20%" x2="100%" y2="80%">
      <stop offset="0%" stop-color="#06b6d4"/>
      <stop offset="45%" stop-color="#0284c7"/>
      <stop offset="100%" stop-color="#1e40af"/>
    </linearGradient>
    <linearGradient id="text-grad" x1="0%" y1="0%" x2="100%" y2="0%">
      <stop offset="0%" stop-color="#06b6d4"/>
      <stop offset="50%" stop-color="#0284c7"/>
      <stop offset="100%" stop-color="#10b981"/>
    </linearGradient>
    <filter id="glow-filter" x="-20%" y="-20%" width="140%" height="140%">
      <feDropShadow dx="0" dy="2" stdDeviation="4" flood-color="#06b6d4" flood-opacity="0.3"/>
    </filter>
  </defs>

  <!-- Emblem Group -->
  <g transform="translate(6, 6) scale(0.52)" filter="url(#glow-filter)">
    <!-- 1. Organic Health Leaf -->
    <path d="M48 10 C32 12, 22 24, 23 42 C28 35, 36 31, 48 30 C49 22, 49 14, 48 10 Z" fill="url(#leaf-grad)"/>
    <path d="M26 38 C32 34, 38 31, 46 29" stroke="#ffffff" stroke-width="2" stroke-opacity="0.6" stroke-linecap="round"/>

    <!-- 2. Stylized Medical 'P' Ribbon Loop -->
    <path d="M32 32 L32 86 C32 88.2, 33.8 90, 36 90 C38.2 90, 40 88.2, 40 86 L40 58 C45 58, 76 58, 76 34 C76 14, 44 14, 32 32 Z" fill="url(#ribbon-grad)"/>

    <!-- 3. Inner Loop Hollow with Medical Plus Symbol -->
    <circle cx="56" cy="36" r="14" fill="#0b1728"/>
    <circle cx="56" cy="36" r="13" stroke="#06b6d4" stroke-width="1.2" stroke-opacity="0.4"/>
    <path d="M56 28 L56 44 M48 36 L64 36" stroke="#ffffff" stroke-width="3.6" stroke-linecap="round"/>
    <circle cx="73" cy="24" r="3.5" fill="#34d399"/>
  </g>

  <!-- Brand Typography -->
  <g transform="translate(68, 42)">
    <text font-family="'Plus Jakarta Sans', -apple-system, BlinkMacSystemFont, 'Segoe UI', Roboto, sans-serif" font-size="32" font-weight="800" letter-spacing="-0.03em" fill="#0f172a">
      prax<tspan fill="#06b6d4">i</tspan><tspan fill="url(#text-grad)">rence</tspan>
    </text>
  </g>
</svg>
